<svg width="512" height="512" viewBox="0 0 512 512" xmlns="http://www.w3.org/2000/svg">
  <rect rx="60" width="512" height="512" fill="#004b77"/>
  <rect x="100" y="100" rx="20" width="312" height="200" fill="white"/>
  <circle cx="135" cy="135" r="7" fill="#004b77"/>
  <circle cx="155" cy="135" r="7" fill="#004b77"/>
  <circle cx="175" cy="135" r="7" fill="#004b77"/>
  <text x="125" y="225" font-family="Arial" font-size="80" fill="#f58220" font-weight="bold">1C</text>
  <g transform="translate(280 140)">
    <circle cx="50" cy="50" r="45" fill="white" stroke="#f58220" stroke-width="5"/>
    <text x="32" y="68" font-family="Arial" font-size="50" fill="#f58220" font-weight="bold">*</text>
  </g>
  <path d="M340 310c-15 0-20 10-20 20 0 10 15 30 35 50 20 20 40 35 50 35 10 0 20-5 20-20 0-10-5-15-15-20l-25-15-10-10-15-25c-5-10-10-15-20-15z" fill="#004b77"/>
  <text x="150" y="460" font-family="Arial" font-size="40" fill="white" font-weight="bold">CTI CLIENT</text>
</svg>